<svg xmlns="http://www.w3.org/2000/svg" viewBox="0 0 240 240"><defs><style>.cls-1{fill:#feaa36;}.cls-10,.cls-11,.cls-2,.cls-3,.cls-5,.cls-9{fill:none;stroke-linecap:round;}.cls-2{stroke:#ebebec;}.cls-10,.cls-2,.cls-3,.cls-9{stroke-linejoin:round;}.cls-10,.cls-2,.cls-9{stroke-width:10px;}.cls-3{stroke:#fec857;stroke-width:6px;}.cls-4{fill:#834145;}.cls-5{stroke:#be4f42;}.cls-11,.cls-5{stroke-miterlimit:10;stroke-width:14px;}.cls-6{fill:#fec857;}.cls-7{fill:#e9415b;}.cls-8{fill:#f9708b;}.cls-9{stroke:#569c39;}.cls-10{stroke:#88c11a;}.cls-11{stroke:#ffbd6e;}</style></defs><title>03</title><g id="patty-bottom"><path class="cls-1" d="M40,184.11H200a10,10,0,0,1,10,10v0a30,30,0,0,1-30,30H60a30,30,0,0,1-30-30v0a10,10,0,0,1,10-10Z"/></g><g id="egg"><path class="cls-1" d="M85,149.11c0-16.57,15.67-30,35-30s35,13.43,35,30"/><line class="cls-2" x1="40" y1="149.12" x2="200" y2="149.12"/><path class="cls-3" d="M97.85,135.42a28.42,28.42,0,0,1,13.27-8.08"/></g><g id="meat-2"><rect class="cls-4" x="25" y="154.11" width="190" height="30" rx="15"/></g><g id="egg-yolk-1"><path class="cls-1" d="M72,140.92v3.19a5,5,0,0,1,5,5v9a4,4,0,0,0,8,0v-9a5,5,0,0,1,5-5v-3.19Z"/></g><g id="egg-yolk-2"><path class="cls-1" d="M143.36,142.29v1.82a6,6,0,0,1,6,6v25a5,5,0,0,0,10,0V158.87a3.49,3.49,0,0,1,3.49-3.49h0a3.49,3.49,0,0,1,3.49,3.49v5.24a3,3,0,0,0,6,0v-14a6,6,0,0,1,6-6v-1.82Z"/></g><g id="meat-1"><rect class="cls-4" x="25" y="114.11" width="190" height="30" rx="15"/><line class="cls-5" x1="40" y1="121.11" x2="67.02" y2="121.11"/></g><g id="cheese-2"><path class="cls-6" d="M170.8,110.11H69.2v4A10,10,0,0,1,76.27,117l40.9,40.9a4,4,0,0,0,5.66,0l40.9-40.9a10,10,0,0,1,7.07-2.93Z"/></g><g id="cheese-1"><path class="cls-3" d="M22,146.11v-17a18,18,0,0,1,18-18H200a18,18,0,0,1,18,18v17"/></g><g id="cheese-bubbles"><circle class="cls-1" cx="107.82" cy="121.11" r="8"/><circle class="cls-1" cx="128.43" cy="133.11" r="4"/></g><g id="tomato"><rect class="cls-7" x="40" y="85.14" width="160" height="14" rx="4"/><rect class="cls-8" x="60" y="85.14" width="30" height="14"/></g><g id="lettuce"><path class="cls-9" d="M38.33,103.11a40.82,40.82,0,0,0,16.33,3c16.34,0,16.34-6,32.67-6s16.33,6,32.67,6,16.33-6,32.66-6,16.34,6,32.67,6a40.84,40.84,0,0,0,16.34-3"/><path class="cls-10" d="M218,109.11c-16.33,0-16.33-12-32.66-12s-16.34,12-32.67,12-16.33-12-32.67-12-16.33,12-32.66,12-16.34-12-32.67-12-16.33,12-32.67,12"/></g><g id="patty-top"><path class="cls-1" d="M210,75.11c0-33.13-40.29-60-90-60S30,42,30,75.11h0a10,10,0,0,0,10,10H200a10,10,0,0,0,10-10Z"/><path class="cls-11" d="M91,32.7c-15.6,4.84-28.77,12.58-38,22.18"/></g></svg>